<?xml version="1.0" standalone="no"?>
<!DOCTYPE svg PUBLIC "-//W3C//DTD SVG 20010904//EN"
 "http://www.w3.org/TR/2001/REC-SVG-20010904/DTD/svg10.dtd">
<svg version="1.0" xmlns="http://www.w3.org/2000/svg"
 width="368.000000pt" height="508.000000pt" viewBox="0 0 368.000000 508.000000"
 preserveAspectRatio="xMidYMid meet">

<g transform="translate(0.000000,508.000000) scale(0.100000,-0.100000)"
fill="#000000" stroke="none">
<path d="M1738 5053 c7 -3 16 -2 19 1 4 3 -2 6 -13 5 -11 0 -14 -3 -6 -6z"/>
<path d="M1853 5053 c15 -2 37 -2 50 0 12 2 0 4 -28 4 -27 0 -38 -2 -22 -4z"/>
<path d="M679 4613 l-24 -28 28 24 c25 23 32 31 24 31 -2 0 -14 -12 -28 -27z"/>
<path d="M469 4393 c-13 -16 -12 -17 4 -4 9 7 17 15 17 17 0 8 -8 3 -21 -13z"/>
<path d="M1830 4030 l0 -30 663 2 662 3 0 25 0 25 -662 3 -663 2 0 -30z"/>
<path d="M1557 3804 c-8 -8 -10 -184 -2 -184 3 0 21 7 41 15 33 14 64 61 64
99 0 36 -81 91 -103 70z"/>
<path d="M1687 3678 c-18 -11 147 -13 543 -8 319 5 341 6 145 8 -126 1 -331 3
-453 5 -123 1 -229 -1 -235 -5z"/>
<path d="M1333 3650 c5 -18 2 -20 -28 -14 -31 6 -32 5 -27 -22 3 -16 11 -35
19 -42 8 -8 11 -22 8 -32 -10 -33 13 -31 33 2 27 45 37 95 22 113 -18 22 -33
18 -27 -5z"/>
<path d="M2180 3621 c-55 -55 -52 -129 7 -181 32 -29 41 -32 81 -27 86 9 137
100 98 175 -34 66 -135 84 -186 33z"/>
<path d="M3591 3504 c0 -11 3 -14 6 -6 3 7 2 16 -1 19 -3 4 -6 -2 -5 -13z"/>
<path d="M1790 3308 l0 -202 -27 -30 -28 -31 28 24 27 24 0 -296 0 -297 73 -1
c132 -1 199 0 202 3 5 5 6 140 6 601 l-1 407 -140 0 -140 0 0 -202z"/>
<path d="M71 3414 c0 -11 3 -14 6 -6 3 7 2 16 -1 19 -3 4 -6 -2 -5 -13z"/>
<path d="M1647 3314 c-15 -13 -24 -24 -20 -24 11 1 57 40 52 44 -2 3 -17 -7
-32 -20z"/>
<path d="M1707 3309 c7 -7 15 -10 18 -7 3 3 -2 9 -12 12 -14 6 -15 5 -6 -5z"/>
<path d="M3612 3300 c0 -14 2 -19 5 -12 2 6 2 18 0 25 -3 6 -5 1 -5 -13z"/>
<path d="M62 3260 c0 -14 2 -19 5 -12 2 6 2 18 0 25 -3 6 -5 1 -5 -13z"/>
<path d="M62 3210 c0 -14 2 -19 5 -12 2 6 2 18 0 25 -3 6 -5 1 -5 -13z"/>
<path d="M1310 3193 c-7 -16 -13 -31 -12 -35 1 -5 -2 -8 -8 -8 -5 0 -10 -4
-10 -9 0 -5 8 -7 18 -4 10 2 34 -5 54 -16 24 -15 55 -22 105 -24 42 -1 69 2
65 7 -3 5 1 7 9 4 10 -4 15 2 17 18 1 13 -3 24 -9 24 -6 0 -20 11 -31 25 -32
40 -55 49 -84 30 -15 -9 -24 -25 -24 -40 0 -17 -6 -25 -16 -25 -22 0 -43 29
-44 58 0 30 -14 28 -30 -5z"/>
<path d="M2767 3183 c-4 -3 -7 -55 -7 -115 l0 -108 104 0 104 0 4 54 c1 30 1
82 0 115 l-4 61 -97 0 c-54 0 -101 -3 -104 -7z"/>
<path d="M1547 3051 c-4 -17 -1 -18 27 -10 17 5 32 9 34 9 2 0 0 5 -3 10 -11
18 -52 11 -58 -9z"/>
<path d="M1757 3009 c7 -7 15 -10 18 -7 3 3 -2 9 -12 12 -14 6 -15 5 -6 -5z"/>
<path d="M1454 2969 c-4 -7 -21 -9 -43 -5 -42 7 -101 -12 -101 -32 0 -7 -6
-12 -12 -10 -24 8 -57 -57 -74 -147 -5 -22 -7 -47 -6 -56 2 -8 -14 -33 -34
-54 -32 -34 -35 -43 -30 -76 4 -22 2 -39 -5 -41 -5 -2 -11 -10 -12 -18 -1 -8
-5 -15 -9 -15 -3 0 -16 -9 -28 -20 -18 -17 -23 -17 -30 -5 -5 8 -18 26 -29 39
l-21 24 -21 -52 c-12 -28 -27 -51 -34 -51 -8 0 -15 -3 -17 -8 -1 -4 -22 -22
-45 -40 -24 -19 -43 -38 -43 -43 0 -5 15 -9 34 -9 65 0 46 -18 -27 -26 -69 -8
-70 -8 -32 -15 39 -7 39 -7 -10 -6 -55 1 -95 -9 -95 -24 0 -6 -5 -7 -11 -3
-17 10 0 -38 21 -58 10 -9 21 -14 24 -11 3 4 6 1 6 -6 0 -7 16 -29 36 -49 25
-25 34 -41 30 -56 -3 -12 -6 -28 -6 -36 0 -13 -1 -13 -10 0 -8 12 -10 9 -10
-13 0 -15 7 -30 15 -33 8 -4 15 -10 15 -15 0 -19 41 -49 67 -50 25 0 26 -1 8
-9 -16 -7 -13 -9 18 -9 23 -1 37 4 37 12 0 6 5 4 11 -6 6 -10 8 -24 6 -31 -3
-7 4 -18 14 -24 10 -7 19 -23 19 -37 0 -22 4 -25 38 -25 21 0 42 -3 46 -8 4
-4 13 -7 19 -7 7 -1 11 -7 9 -14 -1 -7 2 -10 6 -7 5 3 18 -4 28 -16 19 -21 19
-21 -6 -9 l-25 12 22 -18 c15 -12 39 -18 70 -17 27 0 50 -3 53 -8 3 -4 35 -9
70 -10 36 -2 68 -7 72 -12 4 -6 12 -6 20 1 7 6 30 13 51 16 31 5 38 3 33 -8
-3 -8 -2 -17 3 -19 4 -3 9 0 10 7 3 15 11 268 11 361 0 60 2 67 17 62 16 -6
16 -6 0 12 -9 10 -17 26 -17 35 0 9 -6 18 -12 18 -7 1 5 5 27 9 39 7 39 7 8 9
-19 0 -33 6 -33 14 0 8 -4 7 -11 -3 -9 -12 -10 -11 -6 8 3 13 0 22 -6 22 -8 0
-8 3 0 8 10 7 10 12 -1 27 -8 11 -12 25 -9 32 4 9 -5 13 -26 13 -17 0 -31 5
-31 11 0 6 10 10 23 9 47 -4 65 1 70 19 2 11 0 24 -6 30 -14 14 -17 92 -3 84
6 -3 7 -2 3 3 -5 5 -14 9 -20 10 -7 0 -19 2 -29 2 -28 3 -41 119 -17 164 5 9
22 25 39 34 23 14 27 21 18 31 -8 11 -7 12 6 7 14 -5 16 -1 14 29 -1 20 -6 33
-10 31 -5 -3 -5 -11 -2 -17 5 -9 4 -9 -5 -1 -14 13 -23 74 -10 74 5 0 8 6 7
13 -2 6 3 11 10 10 8 -2 12 9 12 31 0 21 -5 34 -12 33 -34 -1 -46 5 -51 23 -6
22 -22 26 -33 9z m-178 -324 c6 -33 3 -39 -39 -80 -35 -33 -47 -40 -51 -29 -9
25 -7 64 4 64 6 0 10 7 10 15 0 15 47 64 62 65 4 0 10 -16 14 -35z m125 -57
c-5 -13 -15 -23 -22 -23 -8 0 -20 -8 -28 -19 -12 -15 -12 -19 0 -27 11 -7 12
-12 2 -28 -6 -10 -10 -43 -9 -72 2 -30 1 -38 -1 -19 -7 58 -25 62 -21 5 l3
-50 53 -3 c28 -2 52 -7 52 -13 0 -9 -11 -10 -100 -13 l-45 -1 -5 54 c-4 48 -7
52 -19 38 -7 -10 -20 -17 -28 -17 -10 0 -14 -7 -10 -19 3 -13 -1 -21 -12 -24
-9 -3 -4 -5 11 -6 43 -2 41 -18 -3 -25 -33 -5 -39 -10 -34 -25 4 -14 -3 -22
-27 -34 -29 -14 -33 -14 -36 -1 -2 8 1 21 7 28 7 8 8 27 4 46 -6 30 -7 32 -14
12 -6 -15 -20 -23 -49 -28 -22 -4 -40 -10 -40 -15 0 -5 -4 -9 -10 -9 -5 0 -7
8 -4 18 5 14 3 14 -11 -3 -9 -11 -11 -21 -5 -23 9 -3 -12 -32 -24 -32 -9 0 -7
45 2 54 4 4 8 12 8 17 1 5 2 13 3 19 4 34 93 104 157 124 25 8 43 -22 22 -37
-9 -6 -6 -6 7 -1 11 4 41 7 66 6 l45 -2 12 51 c8 34 22 61 42 79 47 44 74 52
61 18z m-603 -318 c-7 -10 -14 -17 -17 -15 -4 4 18 35 25 35 2 0 -1 -9 -8 -20z"/>
<path d="M1529 2978 c-5 -18 -6 -38 -1 -34 7 8 12 36 6 36 -2 0 -4 -1 -5 -2z"/>
<path d="M1670 2815 c-1 -33 -1 -72 0 -87 1 -16 -3 -28 -9 -28 -14 0 -14 -57
-1 -65 6 -3 10 -18 11 -33 1 -20 3 -17 9 13 4 22 4 90 0 150 -5 86 -8 97 -10
50z"/>
<path d="M1533 2825 c0 -8 4 -12 9 -9 5 3 6 10 3 15 -9 13 -12 11 -12 -6z"/>
<path d="M2167 2779 c7 -7 15 -10 18 -7 3 3 -2 9 -12 12 -14 6 -15 5 -6 -5z"/>
<path d="M1618 2753 c7 -3 16 -2 19 1 4 3 -2 6 -13 5 -11 0 -14 -3 -6 -6z"/>
<path d="M875 2604 c-11 -8 -20 -18 -20 -22 0 -4 -18 -7 -39 -6 -30 1 -45 -5
-63 -24 -13 -14 -23 -29 -23 -35 0 -5 -7 -4 -15 3 -25 21 -45 5 -41 -34 3 -46
11 -52 32 -28 13 15 22 18 35 11 11 -5 28 -13 38 -19 16 -8 22 -5 32 19 7 15
27 37 45 49 19 12 41 33 50 47 15 23 15 28 3 40 -12 12 -17 12 -34 -1z"/>
<path d="M2211 2593 c0 -5 13 -18 30 -31 19 -15 27 -18 23 -8 -6 16 -54 51
-53 39z"/>
<path d="M660 2441 c0 -6 4 -13 10 -16 6 -3 7 1 4 9 -7 18 -14 21 -14 7z"/>
<path d="M760 2398 c-19 -50 -20 -58 -4 -58 15 0 34 39 34 71 0 30 -17 22 -30
-13z"/>
<path d="M3426 2413 c-6 -14 -5 -15 5 -6 7 7 10 15 7 18 -3 3 -9 -2 -12 -12z"/>
<path d="M2010 2406 c0 -9 5 -16 10 -16 6 0 10 4 10 9 0 6 -4 13 -10 16 -5 3
-10 -1 -10 -9z"/>
<path d="M1647 2393 c-4 -3 -7 -30 -7 -60 0 -56 2 -58 59 -53 17 1 21 -2 16
-12 -5 -8 -2 -7 7 2 10 11 13 31 10 73 l-4 57 -37 0 c-21 0 -41 -3 -44 -7z"/>
<path d="M706 2320 c7 -7 19 -7 35 -1 23 9 22 10 -10 10 -24 1 -32 -2 -25 -9z"/>
<path d="M2022 2270 c0 -14 2 -19 5 -12 2 6 2 18 0 25 -3 6 -5 1 -5 -13z"/>
<path d="M1628 2203 c12 -2 30 -2 40 0 9 3 -1 5 -23 4 -22 0 -30 -2 -17 -4z"/>
<path d="M2016 2151 c-3 -5 -43 -9 -88 -10 -45 -1 -84 -3 -86 -6 -3 -3 38 -5
91 -5 80 0 97 3 97 15 0 17 -6 19 -14 6z"/>
<path d="M1768 2133 c12 -2 32 -2 45 0 12 2 2 4 -23 4 -25 0 -35 -2 -22 -4z"/>
<path d="M1633 2123 c9 -2 23 -2 30 0 6 3 -1 5 -18 5 -16 0 -22 -2 -12 -5z"/>
<path d="M3209 2063 c-13 -16 -12 -17 4 -4 9 7 17 15 17 17 0 8 -8 3 -21 -13z"/>
<path d="M3154 1998 l-19 -23 23 19 c21 18 27 26 19 26 -2 0 -12 -10 -23 -22z"/>
<path d="M520 1996 c0 -2 8 -10 18 -17 15 -13 16 -12 3 4 -13 16 -21 21 -21
13z"/>
<path d="M2974 1818 l-19 -23 23 19 c12 11 22 21 22 23 0 8 -8 2 -26 -19z"/>
</g>
</svg>
